# xmcd
#
# Track frame offsets:
# 150
# 13623
# 22746
# 35769
# 51642
# 66690
# 81063
# 94686
# 107934
# 122082
# 132630
# 150153
# 160701
# 174174
# 186672
# 201945
#
# Disc length: 2865 seconds
#
#
# Revision: 1
# Processed by: cddbd v1.5.2PL0 Copyright (c) Steve Scherf et al.
# Submitted via: HACP 1.20
#
DISCID=dc0b2f10
DTITLE=Hawaiian Artists - BLUE PARADISE
DYEAR=1900
DGENRE=
TTITLE0=HAWAII
TTITLE1=NA LEI O HAWAII
TTITLE2=HAWAIIAN PARADISE
TTITLE3=KAUANOEANUEA
TTITLE4=WAIKAPU
TTITLE5=KAMALANI O KEUKAHA
TTITLE6=PAPALINA LAHILAHI
TTITLE7=THE HVILAU SONG
TTITLE8=BLUE HAWAII
TTITLE9=PEARLY SHELLS
TTITLE10=SWEET GARDENIA
TTITLE11=SWEET LEILANI
TTITLE12=PARADISE ISLAND
TTITLE13=PUA MAEOLE
TTITLE14=ALOHA OE
TTITLE15=KAIMANA HILA
EXTD=
EXTT0=
EXTT1=
EXTT2=
EXTT3=
EXTT4=
EXTT5=
EXTT6=
EXTT7=
EXTT8=
EXTT9=
EXTT10=
EXTT11=
EXTT12=
EXTT13=
EXTT14=
EXTT15=
PLAYORDER=
